<svg width="68" height="80" viewBox="0 0 68 80" fill="none" xmlns="http://www.w3.org/2000/svg">
<path d="M66.976 25.5104V59.3605C66.976 59.8903 66.6965 60.3808 66.2408 60.6509L37.7649 77.5299C36.7649 78.1226 35.5 77.4019 35.5 76.2396V42.3895C35.5 41.8597 35.7794 41.3692 36.2352 41.0991L64.7111 24.2201C65.711 23.6274 66.976 24.3481 66.976 25.5104Z" fill="#FFC107" stroke="#D7A50E"/>
<path d="M31.976 42.3895V76.2396C31.976 77.4019 30.711 78.1226 29.7111 77.5299L1.23515 60.6509C0.779437 60.3808 0.5 59.8903 0.5 59.3605V25.5104C0.5 24.3481 1.76495 23.6274 2.76485 24.2201L31.2408 41.0991C31.6965 41.3692 31.976 41.8597 31.976 42.3895Z" fill="white" stroke="#C4C4C4"/>
<path d="M63.7944 20.5403L35.2408 37.4654C34.7692 37.7449 34.1827 37.7449 33.7111 37.4654L5.15749 20.5403C4.17729 19.9593 4.17729 18.5407 5.15749 17.9597L33.7111 1.0346C34.1827 0.755067 34.7692 0.755067 35.2408 1.0346L63.7944 17.9596C64.7746 18.5407 64.7746 19.9593 63.7944 20.5403Z" fill="#212529" stroke="black"/>
<path d="M50.1828 44.2117L50.5197 44.5856C50.5044 44.5964 50.4892 44.6072 50.474 44.6181L50.1828 44.2117ZM50.1828 44.2117C50.3165 44.1158 50.4565 44.0219 50.6028 43.9309L50.5542 43.877L50.1828 44.2117ZM47.982 47.3994L48.482 48.0203V47.3994H47.982ZM47.982 47.3994L47.5925 47.713L47.982 48.1966V47.3994ZM55.3348 42.2322L54.8556 42.0893C54.8793 42.0099 54.8816 41.9213 54.8615 41.8391C54.8424 41.7613 54.8067 41.7026 54.7692 41.665M55.3348 42.2322L54.7692 41.665M55.3348 42.2322L54.8558 42.0887C54.832 42.168 54.7915 42.2238 54.7525 42.2563C54.7149 42.2875 54.6813 42.2959 54.6567 42.2959H54.6563C52.6101 42.2959 51.0368 42.9846 49.8915 43.8053L49.437 44.131M55.3348 42.2322L49.437 44.131M54.7692 41.665L54.7808 41.6748L55.1048 41.294L54.7629 41.6589C54.765 41.6608 54.7671 41.6629 54.7692 41.665ZM45.3336 43.7869H45.0825H43.5675H45.3336ZM45.3336 43.7869L45.4836 43.5855L45.3336 43.7869ZM43.4397 43.8586L43.4393 43.8591L41.591 46.0305C41.591 46.0305 41.5909 46.0306 41.5909 46.0307C41.5395 46.0913 41.5002 46.1881 41.5002 46.3025C41.5002 46.417 41.5396 46.5139 41.591 46.5745L43.4397 43.8586ZM43.4397 43.8586C43.4645 43.8294 43.4896 43.8113 43.511 43.8009C43.532 43.7907 43.5509 43.787 43.5674 43.7869M43.4397 43.8586L43.5674 43.7869M49.437 44.131L49.8113 44.5464L49.437 44.131ZM43.5674 43.7869V43.2869V43.7869ZM54.5337 41.4646C54.5366 41.4668 54.5395 41.4691 54.5424 41.4714L54.8489 41.0763L54.5249 41.4571L54.5337 41.4646ZM45.2867 50.9265L41.591 46.5745L45.9235 51.2502L45.5424 50.9265C45.5424 50.9265 45.5424 50.9266 45.5423 50.9266C45.5176 50.9557 45.4925 50.9738 45.4711 50.9842C45.4501 50.9944 45.4311 50.9981 45.4146 50.9981C45.398 50.9981 45.3791 50.9944 45.3581 50.9842C45.3367 50.9738 45.3116 50.9557 45.2868 50.9266C45.2868 50.9266 45.2868 50.9265 45.2867 50.9265ZM47.482 48.4777H47.982L47.482 48.4776C47.482 48.4776 47.482 48.4777 47.482 48.4777ZM60.7444 62.1445L61.125 62.4687L60.7445 62.1444C60.7444 62.1445 60.7444 62.1445 60.7444 62.1445ZM62.9006 59.6134L63.281 59.9373L62.9007 59.6133L62.9006 59.6134ZM51.8647 39.755L51.7846 40.2485C51.7851 40.2486 51.7856 40.2487 51.7862 40.2488C51.7867 40.2489 51.7873 40.249 51.7878 40.2491L51.8647 39.755ZM62.9343 59.1095L63.3057 58.7748L62.9098 59.0801C62.9127 59.084 62.9156 59.0879 62.9185 59.092L62.9343 59.1095Z" fill="white" stroke="#D7A50E"/>
<path d="M11.369 46.7686L11.1449 46.453L10.7832 46.5909C10.2303 46.8017 9.65425 46.8012 9.10134 46.5895C8.54332 46.3758 8.0092 45.9462 7.56613 45.3142C7.12311 44.6822 6.79547 43.8816 6.62704 42.9885C6.53931 42.5233 6.49701 42.0448 6.50016 41.5667L8.53379 44.4707L8.74017 44.7654L9.08519 44.6634L11.392 43.9809L11.6991 43.8901L11.745 43.5732L12.2229 40.2772L12.2514 40.081L12.1377 39.9187L9.7499 36.5073C10.0941 36.4796 10.4403 36.5307 10.7777 36.6605C11.3361 36.8753 11.8703 37.3063 12.3131 37.9398C12.7558 38.5733 13.0827 39.3754 13.2501 40.2695C13.4174 41.163 13.4172 42.1053 13.2494 42.9986L13.211 43.2034L13.3294 43.3749L21.5379 55.2635L21.7686 55.5977L22.143 55.4404C22.5947 55.2506 23.0619 55.2039 23.519 55.2973C23.978 55.3911 24.4332 55.6277 24.8503 56.0099C25.2684 56.3929 25.6351 56.9105 25.9171 57.5358C26.1988 58.1608 26.386 58.8715 26.4619 59.6199C26.5378 60.3681 26.5 61.1305 26.3518 61.8538C26.2036 62.5775 25.9498 63.2388 25.6133 63.7947C25.2766 64.3509 24.8694 64.7816 24.4283 65.0703C23.989 65.3577 23.5252 65.499 23.0661 65.5C22.5684 65.4994 22.0646 65.3339 21.593 64.9964C21.1191 64.6571 20.691 64.1526 20.3541 63.5091C20.0175 62.866 19.7862 62.111 19.6845 61.3033C19.5829 60.4959 19.6146 59.6657 19.7764 58.8808L19.8203 58.6677L19.6944 58.4903L11.369 46.7686ZM23.8642 56.5906L23.3624 56.2225L23.0667 56.0055L22.7709 56.2225L22.2691 56.5907L21.7187 56.6293L21.4209 56.6502L21.298 56.9223L20.9632 57.6637L20.4539 58.1327L20.3001 58.2743L20.2929 58.4833L20.2615 59.3968L19.9703 60.2061L19.9094 60.3754L19.9703 60.5446L20.2615 61.354L20.2929 62.2674L20.3001 62.4764L20.4539 62.618L20.9632 63.087L21.298 63.8285L21.4209 64.1005L21.7187 64.1214L22.2691 64.16L22.7709 64.5282L23.0667 64.7453L23.3624 64.5282L23.8643 64.16L24.4146 64.1214L24.7124 64.1005L24.8353 63.8285L25.1701 63.087L25.6794 62.618L25.8332 62.4764L25.8404 62.2674L25.8718 61.354L26.163 60.5446L26.2239 60.3754L26.163 60.2061L25.8718 59.3968L25.8404 58.4833L25.8332 58.2743L25.6794 58.1327L25.1701 57.6637L24.8353 56.9223L24.7124 56.6502L24.4147 56.6293L23.8642 56.5906Z" fill="white" stroke="#C4C4C4"/>
<path d="M25.3677 8.00122L24 9.36881L27.0089 13.5824C27.1355 13.7598 27.3028 13.9044 27.4967 14.0041C27.6906 14.1037 27.9055 14.1556 28.1235 14.1554H28.2193C28.3991 14.1552 28.5772 14.1906 28.7433 14.2593C28.9095 14.3281 29.0604 14.4289 29.1876 14.5561L32.8461 18.2144L29.2669 21.844C28.6547 21.6638 28.009 21.6287 27.3809 21.7415C26.7528 21.8544 26.1596 22.112 25.6484 22.494C25.1373 22.876 24.7222 23.3719 24.436 23.9422C24.1499 24.5126 24.0006 25.1418 24 25.7799C24.0008 26.3679 24.128 26.9488 24.373 27.4834C24.6179 28.0179 24.9749 28.4935 25.4198 28.878C25.8646 29.2626 26.3869 29.547 26.9513 29.712C27.5157 29.8771 28.1089 29.9189 28.6909 29.8346C29.2728 29.7504 29.8299 29.542 30.3243 29.2237C30.8187 28.9054 31.2388 28.4845 31.5564 27.9897C31.8739 27.4948 32.0813 26.9374 32.1646 26.3554C32.2479 25.7733 32.2051 25.1802 32.0391 24.6161L35.6689 21.0371L36.9928 22.3609L36.5757 23.6109C36.4955 23.8518 36.484 24.1103 36.5425 24.3574C36.601 24.6045 36.7271 24.8305 36.9067 25.01L41.4966 29.5996C41.753 29.856 42.1008 30 42.4635 30C42.8262 30 43.174 29.856 43.4304 29.5996L45.5996 27.4306C45.856 27.1741 46 26.8263 46 26.4637C46 26.1011 45.856 25.7533 45.5996 25.4968L41.0097 20.9072C40.8302 20.7276 40.6042 20.6015 40.3571 20.543C40.11 20.4846 39.8515 20.4961 39.6106 20.5762L38.3605 20.9933L37.0475 19.6804L40.7129 16.0659C41.3209 16.2282 41.9581 16.2487 42.5754 16.1258C43.1926 16.0029 43.7733 15.74 44.2729 15.3572C44.7724 14.9743 45.1773 14.4819 45.4564 13.9179C45.7355 13.3539 45.8813 12.7333 45.8827 12.104C45.8827 11.7361 45.8348 11.3792 45.7432 11.0414L42.8164 13.9694L40.412 13.4716L39.9142 11.0687L42.8423 8.14072C42.1458 7.95344 41.4122 7.95309 40.7154 8.1397C40.0187 8.32631 39.3835 8.69329 38.8738 9.20365C38.3641 9.714 37.9979 10.3497 37.8123 11.0466C37.6266 11.7436 37.6279 12.4772 37.8162 13.1735L34.2055 16.8359L30.5552 13.1885C30.2987 12.9321 30.1546 12.5843 30.1545 12.2216V12.1245C30.1545 11.9067 30.1025 11.6921 30.0029 11.4985C29.9032 11.3048 29.7587 11.1378 29.5814 11.0113L25.3677 8.00122ZM38.5602 22.5606C38.6237 22.4969 38.6992 22.4464 38.7822 22.4119C38.8653 22.3774 38.9544 22.3597 39.0443 22.3597C39.1343 22.3597 39.2233 22.3774 39.3064 22.4119C39.3895 22.4464 39.465 22.4969 39.5285 22.5606L43.6315 26.6634C43.6951 26.7269 43.7455 26.8024 43.7799 26.8855C43.8143 26.9686 43.832 27.0576 43.832 27.1475C43.832 27.2374 43.8143 27.3264 43.7799 27.4095C43.7455 27.4926 43.6951 27.568 43.6315 27.6316C43.5679 27.6952 43.4924 27.7456 43.4094 27.78C43.3263 27.8144 43.2373 27.8322 43.1473 27.8322C43.0574 27.8322 42.9684 27.8144 42.8853 27.78C42.8022 27.7456 42.7268 27.6952 42.6632 27.6316L38.5602 23.5289C38.4965 23.4653 38.446 23.3899 38.4115 23.3068C38.377 23.2237 38.3593 23.1347 38.3593 23.0447C38.3593 22.9548 38.377 22.8657 38.4115 22.7826C38.446 22.6996 38.4965 22.6241 38.5602 22.5606ZM28.103 23.0447L28.7472 23.3757L29.4707 23.4112L29.8632 24.0198L30.4718 24.4123L30.5074 25.1358L30.8383 25.7799L30.5074 26.424L30.4718 27.1475L29.8632 27.54L29.4707 28.1486L28.7472 28.1841L28.103 28.5151L27.4588 28.1841L26.7353 28.1486L26.3428 27.54L25.7342 27.1475L25.6986 26.424L25.3677 25.7799L25.6986 25.1358L25.7342 24.4123L26.3428 24.0198L26.7353 23.4112L27.4588 23.3757L28.103 23.0447Z" fill="white"/>
</svg>
